<?xml version="1.0" standalone="no"?>
<!DOCTYPE svg PUBLIC "-//W3C//DTD SVG 20010904//EN"
 "http://www.w3.org/TR/2001/REC-SVG-20010904/DTD/svg10.dtd">
<svg version="1.0" xmlns="http://www.w3.org/2000/svg"
 width="262.000000pt" height="272.000000pt" viewBox="0 0 262.000000 272.000000"
 preserveAspectRatio="xMidYMid meet">

<g transform="translate(0.000000,272.000000) scale(0.100000,-0.100000)"
fill="#000000" stroke="none">
<path d="M1598 2431 l-291 -293 -286 286 c-157 157 -291 286 -297 286 -6 0
-39 -25 -73 -56 l-62 -57 250 -244 c138 -135 251 -249 251 -254 0 -6 -170 -10
-447 -9 -247 0 -455 -1 -463 -3 -46 -8 -158 -96 -143 -111 4 -3 0 -6 -7 -6 -7
0 -10 -3 -7 -6 3 -4 2 -15 -4 -25 -9 -18 -14 -1468 -5 -1514 3 -11 5 -22 5
-25 2 -15 49 -68 86 -98 32 -27 83 -33 243 -32 140 1 162 -1 162 -14 0 -9 4
-16 9 -16 5 0 11 -8 15 -17 6 -21 25 -51 44 -71 6 -7 12 -20 12 -28 0 -8 5
-14 10 -14 6 0 10 -7 10 -15 0 -8 4 -15 9 -15 5 0 13 -10 17 -22 8 -25 41 -58
58 -58 28 0 56 14 56 26 0 8 5 14 10 14 6 0 10 7 10 15 0 8 5 15 10 15 6 0 10
6 10 14 0 8 6 21 14 28 7 8 17 24 20 36 4 12 12 22 17 22 5 0 9 7 9 15 0 8 5
15 10 15 6 0 10 6 10 13 0 8 8 24 19 35 18 22 22 22 405 22 400 0 401 0 419
-40 10 -21 30 -52 45 -68 6 -7 12 -20 12 -28 0 -8 5 -14 10 -14 6 0 10 -7 10
-15 0 -8 4 -15 9 -15 5 0 13 -10 17 -22 9 -30 50 -68 73 -68 21 0 61 32 61 49
0 6 4 11 10 11 5 0 12 11 16 25 3 14 10 25 14 25 4 0 11 11 14 25 4 14 11 25
16 25 6 0 10 7 10 15 0 8 4 15 9 15 5 0 12 11 15 25 4 14 11 25 16 25 6 0 10
7 10 16 0 13 23 15 178 14 174 -1 225 5 257 32 37 30 84 83 86 98 0 3 2 14 5
25 9 46 4 1496 -5 1514 -6 10 -7 21 -4 25 3 3 0 6 -7 6 -7 0 -11 3 -7 6 15 15
-97 103 -143 111 -8 2 -220 3 -470 3 l-455 0 253 251 c138 138 252 254 252
258 0 7 -40 45 -103 101 l-28 25 -291 -294z"/>
</g>
</svg>
